<svg width="114.000000" height="119.000000" viewBox="0 0 114 119" fill="none" xmlns="http://www.w3.org/2000/svg" xmlns:xlink="http://www.w3.org/1999/xlink">
	<desc>
			Created with Pixso.
	</desc>
	<defs>
		<filter id="filter_1_5_dd" x="0.000000" y="0.000000" width="114.000000" height="119.000000" filterUnits="userSpaceOnUse" color-interpolation-filters="sRGB">
			<feFlood flood-opacity="0" result="BackgroundImageFix"/>
			<feColorMatrix in="SourceAlpha" type="matrix" values="0 0 0 0 0 0 0 0 0 0 0 0 0 0 0 0 0 0 127 0" result="hardAlpha"/>
			<feOffset dx="0" dy="10"/>
			<feGaussianBlur stdDeviation="2"/>
			<feComposite in2="hardAlpha" operator="out" k2="-1" k3="1"/>
			<feColorMatrix type="matrix" values="0 0 0 0 0 0 0 0 0 0 0 0 0 0 0 0 0 0 0.25 0"/>
			<feBlend mode="normal" in2="BackgroundImageFix" result="effect_dropShadow_1"/>
			<feBlend mode="normal" in="SourceGraphic" in2="effect_dropShadow_1" result="shape"/>
		</filter>
		<clipPath id="clip1_5">
			<rect id="Frame" rx="0.000000" width="101.000000" height="102.000000" transform="translate(6.500000 0.500000)" fill="white" fill-opacity="0"/>
		</clipPath>
		<linearGradient x1="56.996613" y1="0.001160" x2="56.996613" y2="102.926903" id="paint_linear_1_6_0" gradientUnits="userSpaceOnUse">
			<stop stop-color="#C0B7E8"/>
			<stop offset="1.000000" stop-color="#8176AF"/>
		</linearGradient>
	</defs>
	<g filter="url(#filter_1_5_dd)">
		<rect id="Frame" rx="0.000000" width="101.000000" height="102.000000" transform="translate(6.500000 0.500000)" fill="#FFFFFF" fill-opacity="0"/>
		<g clip-path="url(#clip1_5)">
			<path id="Vector" d="M106.77 41.25C108.1 48.97 99.91 46.91 99.91 46.91C96.48 37.25 90.99 38.15 90.99 38.15C95.29 41.29 95.61 43.96 95.61 43.96C84.17 35.84 68.6 42.37 62.68 45.44C59.36 40.75 52.64 30.25 55.03 25.49C58.17 19.25 64.56 22.82 64.56 22.82C77.49 22.61 76.76 17.99 76.76 17.99C73.33 20.66 63.22 17.99 63.22 17.99C72 17.99 75.72 14.42 75.72 14.42C69.18 16.04 61.89 9.08 61.89 9.08C59.22 -4.59 46.87 1.22 46.87 1.22C54.59 -0.11 52.54 8.07 52.54 8.07C42.86 11.5 43.76 16.98 43.76 16.98C46.9 12.69 49.58 12.37 49.58 12.37C40.73 24.81 49.25 42.12 51.78 46.63C47.16 49.84 36.32 56.9 31.45 54.45C25.2 51.31 28.78 44.93 28.78 44.93C28.63 32.02 24.01 32.74 24.01 32.74C26.68 36.17 24.01 46.27 24.01 46.27C24.01 37.5 20.44 33.79 20.44 33.79C22.06 40.32 15.09 47.6 15.09 47.6C1.41 50.27 7.22 62.6 7.22 62.6C5.89 54.89 14.08 56.94 14.08 56.94C17.51 66.61 23 65.7 23 65.7C18.7 62.57 18.38 59.9 18.38 59.9C30.48 68.48 47.19 60.69 52.25 57.95C55.64 62.82 61.96 72.85 59.61 77.5C56.47 83.74 50.08 80.17 50.08 80.17C37.15 80.31 37.88 84.93 37.88 84.93C41.31 82.26 51.42 84.93 51.42 84.93C42.64 84.93 38.92 88.5 38.92 88.5C45.46 86.87 52.75 93.83 52.75 93.83C55.42 107.5 67.77 101.7 67.77 101.7C60.05 103.03 62.1 94.84 62.1 94.84C71.78 91.42 70.88 85.94 70.88 85.94C67.74 90.23 65.06 90.55 65.06 90.55C73.73 78.4 65.75 61.56 63.04 56.62C67.95 53.19 77.88 47.06 82.47 49.37C88.71 52.5 85.14 58.89 85.14 58.89C85.28 71.8 89.91 71.08 89.91 71.08C87.23 67.65 89.91 57.55 89.91 57.55C89.91 66.32 93.48 70.03 93.48 70.03C91.86 63.5 98.82 56.22 98.82 56.22C112.58 53.59 106.77 41.25 106.77 41.25Z" fill="url(#paint_linear_1_6_0)" fill-opacity="1.000000" fill-rule="nonzero"/>
		</g>
	</g>
</svg>
